<svg id="Capa_1" data-name="Capa 1" xmlns="http://www.w3.org/2000/svg" viewBox="0 0 331.35 135.2"><defs><style>.cls-1{fill:#f3912d;}.cls-2,.cls-4{fill:none;stroke-miterlimit:3.86;}.cls-2{stroke:#f3912d;stroke-width:1.84px;}.cls-3,.cls-5{fill:#1d1d1b;}.cls-4{stroke:#1d1d1b;stroke-width:0.63px;}.cls-5{fill-rule:evenodd;}</style></defs><title>logoMedialab madrid archive trazado. Intenso</title><path class="cls-1" d="M271.49,331.45a4.8,4.8,0,0,1,1.95,1.5,5,5,0,0,1,1,2.16,15.25,15.25,0,0,1,.15,2.48l0,10.57H270V337.48a3.56,3.56,0,0,0-.31-1.57,2.19,2.19,0,0,0-2.16-1.17,2.53,2.53,0,0,0-2.51,1.51,4.81,4.81,0,0,0-.35,1.92v10h-4.42v-10A5.52,5.52,0,0,0,260,336a2.14,2.14,0,0,0-2.17-1.21,2.58,2.58,0,0,0-2.52,1.21,4.63,4.63,0,0,0-.35,2.06v10.1h-4.45V331.41h4.26v2.45a7.26,7.26,0,0,1,1.54-1.86,6.07,6.07,0,0,1,6.42-.14,4.91,4.91,0,0,1,1.45,2,5.45,5.45,0,0,1,2.14-2.17,6.51,6.51,0,0,1,3-.7A5.82,5.82,0,0,1,271.49,331.45Z" transform="translate(-131 -258.89)"/><path class="cls-1" d="M284.44,338a7.47,7.47,0,0,0,1.75-.39,1.33,1.33,0,0,0,.95-1.25,1.48,1.48,0,0,0-.73-1.42,4.59,4.59,0,0,0-2.13-.39,2.78,2.78,0,0,0-2.23.77,3.14,3.14,0,0,0-.62,1.54h-4.24a6.48,6.48,0,0,1,1.24-3.62q1.74-2.22,6-2.22a10.66,10.66,0,0,1,4.91,1.1c1.44.72,2.15,2.1,2.15,4.12v7.7c0,.53,0,1.18,0,1.94a2.37,2.37,0,0,0,.27,1.17,1.51,1.51,0,0,0,.64.5v.65h-4.77a5.22,5.22,0,0,1-.28-1q-.08-.45-.12-1a8.87,8.87,0,0,1-2.11,1.68,6.36,6.36,0,0,1-3.22.81,5.53,5.53,0,0,1-3.78-1.3,4.59,4.59,0,0,1-1.49-3.68,4.77,4.77,0,0,1,2.4-4.48,10.88,10.88,0,0,1,3.87-1.08Zm2.68,2a4.53,4.53,0,0,1-.85.43,9.41,9.41,0,0,1-1.18.3l-1,.18a6.94,6.94,0,0,0-2,.6,2,2,0,0,0-1,1.86,2,2,0,0,0,.63,1.63,2.45,2.45,0,0,0,1.54.5,4.6,4.6,0,0,0,2.65-.83,3.53,3.53,0,0,0,1.26-3Z" transform="translate(-131 -258.89)"/><path class="cls-1" d="M303.43,331.65a5.37,5.37,0,0,1,1.93,1.86v-8h4.45v22.66h-4.27v-2.32A6.26,6.26,0,0,1,303.4,348a6,6,0,0,1-3,.67,6.25,6.25,0,0,1-4.95-2.37,9.14,9.14,0,0,1-2-6.11,10.48,10.48,0,0,1,2-6.75,6.41,6.41,0,0,1,5.28-2.47A5.47,5.47,0,0,1,303.43,331.65Zm1.08,12a6.06,6.06,0,0,0,1-3.58c0-2-.52-3.52-1.55-4.4a3.33,3.33,0,0,0-2.22-.8,3.07,3.07,0,0,0-2.82,1.45,7.87,7.87,0,0,0,0,7.33,3.1,3.1,0,0,0,2.78,1.39A3.23,3.23,0,0,0,304.51,343.6Z" transform="translate(-131 -258.89)"/><path class="cls-1" d="M322.32,331l.38,0v4.5l-.74-.06-.52,0c-1.77,0-2.95.58-3.56,1.73a6.67,6.67,0,0,0-.5,3v8H313V331.38h4.18v2.93a9.64,9.64,0,0,1,1.77-2.3,4.89,4.89,0,0,1,3.21-1Z" transform="translate(-131 -258.89)"/><path class="cls-1" d="M329,329.38h-4.45v-4.05H329Zm-4.45,2H329v16.78h-4.45Z" transform="translate(-131 -258.89)"/><path class="cls-1" d="M341.35,331.65a5.34,5.34,0,0,1,1.92,1.86v-8h4.45v22.66h-4.26v-2.32a6.35,6.35,0,0,1-2.14,2.17,6,6,0,0,1-3,.67,6.25,6.25,0,0,1-4.95-2.37,9.14,9.14,0,0,1-2-6.11,10.47,10.47,0,0,1,2-6.75,6.42,6.42,0,0,1,5.29-2.47A5.47,5.47,0,0,1,341.35,331.65Zm1.08,12a6.13,6.13,0,0,0,1-3.58c0-2-.52-3.52-1.56-4.4a3.29,3.29,0,0,0-2.21-.8,3.08,3.08,0,0,0-2.83,1.45,7.83,7.83,0,0,0,0,7.33,3.08,3.08,0,0,0,2.77,1.39A3.25,3.25,0,0,0,342.43,343.6Z" transform="translate(-131 -258.89)"/><path class="cls-1" d="M365.53,338a7.58,7.58,0,0,0,1.76-.39,1.32,1.32,0,0,0,.94-1.25,1.48,1.48,0,0,0-.72-1.42,4.65,4.65,0,0,0-2.13-.39,2.76,2.76,0,0,0-2.23.77,3.15,3.15,0,0,0-.63,1.54h-4.23a6.33,6.33,0,0,1,1.24-3.62q1.74-2.22,6-2.22a10.67,10.67,0,0,1,4.92,1.1c1.43.72,2.15,2.1,2.15,4.12v7.7c0,.53,0,1.18,0,1.94a2.51,2.51,0,0,0,.26,1.17,1.55,1.55,0,0,0,.65.5v.65h-4.78a5.14,5.14,0,0,1-.27-1c-.05-.3-.09-.64-.13-1a8.82,8.82,0,0,1-2.1,1.68,6.39,6.39,0,0,1-3.22.81,5.56,5.56,0,0,1-3.79-1.3,4.62,4.62,0,0,1-1.49-3.68,4.77,4.77,0,0,1,2.4-4.48,10.88,10.88,0,0,1,3.88-1.08Zm2.69,2a5.23,5.23,0,0,1-.85.43,9.41,9.41,0,0,1-1.18.3l-1,.18a6.93,6.93,0,0,0-2,.6,2,2,0,0,0-1,1.86,2,2,0,0,0,.63,1.63,2.41,2.41,0,0,0,1.54.5,4.62,4.62,0,0,0,2.65-.83,3.56,3.56,0,0,0,1.26-3Z" transform="translate(-131 -258.89)"/><path class="cls-1" d="M385,331l.38,0v4.5l-.74-.06-.52,0c-1.77,0-2.95.58-3.56,1.73a6.65,6.65,0,0,0-.51,3v8h-4.42V331.38h4.19v2.93a9.64,9.64,0,0,1,1.77-2.3,4.86,4.86,0,0,1,3.2-1Z" transform="translate(-131 -258.89)"/><path class="cls-1" d="M397.14,337.4a3.85,3.85,0,0,0-.63-1.69,2.65,2.65,0,0,0-2.3-1,3,3,0,0,0-3,2.2,9.35,9.35,0,0,0-.43,3.1,8.64,8.64,0,0,0,.43,3,3,3,0,0,0,3,2.09,2.62,2.62,0,0,0,2.19-.83,4.1,4.1,0,0,0,.78-2.16h4.48a7.24,7.24,0,0,1-1.45,3.79,7,7,0,0,1-6.11,2.88q-4,0-6-2.4a9.67,9.67,0,0,1-1.91-6.23,9.84,9.84,0,0,1,2.11-6.72,7.33,7.33,0,0,1,5.82-2.4,8.8,8.8,0,0,1,5.17,1.42q2,1.41,2.38,5Z" transform="translate(-131 -258.89)"/><path class="cls-1" d="M415.91,331.48a5.06,5.06,0,0,1,2.08,1.64,4.41,4.41,0,0,1,.84,1.94,24.36,24.36,0,0,1,.15,3.24v9.86H414.5V337.94a4.44,4.44,0,0,0-.46-2.18,2.29,2.29,0,0,0-2.26-1.18,3.1,3.1,0,0,0-2.62,1.17,5.38,5.38,0,0,0-.89,3.32v9.09h-4.39V325.55h4.39v8a5.43,5.43,0,0,1,2.2-2,6.26,6.26,0,0,1,2.63-.57A7.08,7.08,0,0,1,415.91,331.48Z" transform="translate(-131 -258.89)"/><path class="cls-1" d="M426.83,329.38h-4.45v-4.05h4.45Zm-4.45,2h4.45v16.78h-4.45Z" transform="translate(-131 -258.89)"/><path class="cls-1" d="M440.63,331.38h4.7l-6.05,16.78h-4.63l-6-16.78h4.93l3.49,12.38Z" transform="translate(-131 -258.89)"/><path class="cls-1" d="M458,331.72a6.85,6.85,0,0,1,2.9,2.48,8.21,8.21,0,0,1,1.34,3.47,20.31,20.31,0,0,1,.14,3.33H450.13a4,4,0,0,0,1.75,3.54,4.47,4.47,0,0,0,2.42.63,3.44,3.44,0,0,0,3.34-1.92h4.48a5.43,5.43,0,0,1-1.63,3,8.16,8.16,0,0,1-6.31,2.45,9.15,9.15,0,0,1-5.91-2.06q-2.56-2.07-2.56-6.72,0-4.36,2.31-6.69a8.09,8.09,0,0,1,6-2.32A9.59,9.59,0,0,1,458,331.72Zm-6.56,3.79a4.58,4.58,0,0,0-1.17,2.6h7.56a3.66,3.66,0,0,0-1.17-2.65,3.87,3.87,0,0,0-2.6-.91A3.47,3.47,0,0,0,451.4,335.51Z" transform="translate(-131 -258.89)"/><path class="cls-1" d="M182.16,310.94c0,6.79-2.52,12.89-6.49,16.79l-39.1,39.13a15.33,15.33,0,1,0,21.67,21.67l28.54-28.48A15.08,15.08,0,0,1,208,360l10.22,10.19A15.38,15.38,0,1,0,240,348.39L219,327.31c-3.83-3.9-6.15-9.8-6.15-16.45V275.45a15.33,15.33,0,1,0-30.65,0Z" transform="translate(-131 -258.89)"/><path class="cls-2" d="M182.16,310.94c0,6.79-2.52,12.89-6.49,16.79l-39.1,39.13a15.33,15.33,0,1,0,21.67,21.67l28.54-28.48A15.08,15.08,0,0,1,208,360l10.22,10.19A15.38,15.38,0,1,0,240,348.39L219,327.31c-3.83-3.9-6.15-9.8-6.15-16.45V275.45a15.33,15.33,0,1,0-30.65,0Z" transform="translate(-131 -258.89)"/><path class="cls-3" d="M281.11,298.56a18.27,18.27,0,0,0-.95-6,13.22,13.22,0,0,0-2.77-4.66,12.6,12.6,0,0,0-4.48-3,15.87,15.87,0,0,0-6-1.08A13,13,0,0,0,261,285a13.23,13.23,0,0,0-4.41,3.48,12,12,0,0,0-4.34-3.52,13.11,13.11,0,0,0-5.72-1.24,10.77,10.77,0,0,0-4.93,1.11,11.63,11.63,0,0,0-3.75,3V284.6h-8.22v33.59h8.61V298.56a6.62,6.62,0,0,1,1.8-4.76,6.18,6.18,0,0,1,4.69-1.89,6.61,6.61,0,0,1,3.41.75,5.19,5.19,0,0,1,1.87,1.82,6.78,6.78,0,0,1,.81,2.22,10.55,10.55,0,0,1,.2,1.86v19.63h8.61V298.56a6.62,6.62,0,0,1,1.8-4.76,6.29,6.29,0,0,1,4.76-1.89,6.46,6.46,0,0,1,3.34.75,5.46,5.46,0,0,1,1.9,1.82,6.25,6.25,0,0,1,.85,2.22,11.6,11.6,0,0,1,.2,1.86v19.63h8.61Z" transform="translate(-131 -258.89)"/><path class="cls-4" d="M281.11,298.56a18.27,18.27,0,0,0-.95-6,13.22,13.22,0,0,0-2.77-4.66,12.6,12.6,0,0,0-4.48-3,15.87,15.87,0,0,0-6-1.08A13,13,0,0,0,261,285a13.23,13.23,0,0,0-4.41,3.48,12,12,0,0,0-4.34-3.52,13.11,13.11,0,0,0-5.72-1.24,10.77,10.77,0,0,0-4.93,1.11,11.63,11.63,0,0,0-3.75,3V284.6h-8.22v33.59h8.61V298.56a6.62,6.62,0,0,1,1.8-4.76,6.18,6.18,0,0,1,4.69-1.89,6.61,6.61,0,0,1,3.41.75,5.19,5.19,0,0,1,1.87,1.82,6.78,6.78,0,0,1,.81,2.22,10.55,10.55,0,0,1,.2,1.86v19.63h8.61V298.56a6.62,6.62,0,0,1,1.8-4.76,6.29,6.29,0,0,1,4.76-1.89,6.46,6.46,0,0,1,3.34.75,5.46,5.46,0,0,1,1.9,1.82,6.25,6.25,0,0,1,.85,2.22,11.6,11.6,0,0,1,.2,1.86v19.63h8.61Z" transform="translate(-131 -258.89)"/><path class="cls-5" d="M315.2,304.75a23.47,23.47,0,0,0-.72-8.87,17.79,17.79,0,0,0-3.52-6.62,15.37,15.37,0,0,0-5.64-4.1,17.68,17.68,0,0,0-7-1.41,16,16,0,0,0-6.65,1.41,17.59,17.59,0,0,0-9.19,9.39,17.28,17.28,0,0,0-1.37,6.88,17.06,17.06,0,0,0,1.37,6.84,18,18,0,0,0,3.71,5.58,17.35,17.35,0,0,0,5.48,3.75A16.49,16.49,0,0,0,298.3,319a17.11,17.11,0,0,0,10.54-3.16,15.58,15.58,0,0,0,5.7-8.32h-9.19a6.86,6.86,0,0,1-3,3,9.1,9.1,0,0,1-4.07.94,8.35,8.35,0,0,1-5.32-1.76,8.9,8.9,0,0,1-3.09-4.89Zm-25.24-7a9.1,9.1,0,0,1,3.13-4.66,8.07,8.07,0,0,1,5.15-1.73,8.52,8.52,0,0,1,5.38,1.73,8.39,8.39,0,0,1,3,4.66Z" transform="translate(-131 -258.89)"/><path class="cls-4" d="M315.2,304.75a23.47,23.47,0,0,0-.72-8.87,17.79,17.79,0,0,0-3.52-6.62,15.37,15.37,0,0,0-5.64-4.1,17.68,17.68,0,0,0-7-1.41,16,16,0,0,0-6.65,1.41,17.59,17.59,0,0,0-9.19,9.39,17.28,17.28,0,0,0-1.37,6.88,17.06,17.06,0,0,0,1.37,6.84,18,18,0,0,0,3.71,5.58,17.35,17.35,0,0,0,5.48,3.75A16.49,16.49,0,0,0,298.3,319a17.11,17.11,0,0,0,10.54-3.16,15.58,15.58,0,0,0,5.7-8.32h-9.19a6.86,6.86,0,0,1-3,3,9.1,9.1,0,0,1-4.07.94,8.35,8.35,0,0,1-5.32-1.76,8.9,8.9,0,0,1-3.09-4.89Zm-25.24-7a9.1,9.1,0,0,1,3.13-4.66,8.07,8.07,0,0,1,5.15-1.73,8.52,8.52,0,0,1,5.38,1.73,8.39,8.39,0,0,1,3,4.66Z" transform="translate(-131 -258.89)"/><path class="cls-5" d="M347.67,269.67h-5.54v20a15.65,15.65,0,0,0-4.8-4.21,12.93,12.93,0,0,0-6.62-1.73,15.93,15.93,0,0,0-6.72,1.41,16.8,16.8,0,0,0-5.31,3.78,17.12,17.12,0,0,0-3.52,5.61,18.53,18.53,0,0,0-1.28,6.88,18.29,18.29,0,0,0,1.28,6.84,17.66,17.66,0,0,0,3.52,5.61,16,16,0,0,0,12,5.15,13,13,0,0,0,6.78-1.82,14.83,14.83,0,0,0,4.83-4.44v5.42h5.35Zm-5.54,31.82a13.09,13.09,0,0,1-3.4,8.81,11.69,11.69,0,0,1-3.62,2.67,10.12,10.12,0,0,1-4.4,1,10.35,10.35,0,0,1-4.43-1,10.81,10.81,0,0,1-3.59-2.67,13.08,13.08,0,0,1-2.38-4,13.23,13.23,0,0,1-.88-4.83,13.54,13.54,0,0,1,3.26-8.9,10.79,10.79,0,0,1,3.59-2.71,10.34,10.34,0,0,1,4.43-1,10.11,10.11,0,0,1,4.4,1,11.66,11.66,0,0,1,3.62,2.71,13.24,13.24,0,0,1,3.4,8.9" transform="translate(-131 -258.89)"/><path class="cls-4" d="M347.67,269.67h-5.54v20a15.65,15.65,0,0,0-4.8-4.21,12.93,12.93,0,0,0-6.62-1.73,15.93,15.93,0,0,0-6.72,1.41,16.8,16.8,0,0,0-5.31,3.78,17.12,17.12,0,0,0-3.52,5.61,18.53,18.53,0,0,0-1.28,6.88,18.29,18.29,0,0,0,1.28,6.84,17.66,17.66,0,0,0,3.52,5.61,16,16,0,0,0,12,5.15,13,13,0,0,0,6.78-1.82,14.83,14.83,0,0,0,4.83-4.44v5.42h5.35Zm-5.54,31.82a13.09,13.09,0,0,1-3.4,8.81,11.69,11.69,0,0,1-3.62,2.67,10.12,10.12,0,0,1-4.4,1,10.35,10.35,0,0,1-4.43-1,10.81,10.81,0,0,1-3.59-2.67,13.08,13.08,0,0,1-2.38-4,13.23,13.23,0,0,1-.88-4.83,13.54,13.54,0,0,1,3.26-8.9,10.79,10.79,0,0,1,3.59-2.71,10.34,10.34,0,0,1,4.43-1,10.11,10.11,0,0,1,4.4,1,11.66,11.66,0,0,1,3.62,2.71,13.24,13.24,0,0,1,3.4,8.9Z" transform="translate(-131 -258.89)"/><path class="cls-5" d="M356.58,272.93H351v6.59h5.55Zm0,11.67H351v33.59h5.55Z" transform="translate(-131 -258.89)"/><path class="cls-4" d="M356.58,272.93H351v6.59h5.55Zm0,11.67H351v33.59h5.55Z" transform="translate(-131 -258.89)"/><path class="cls-5" d="M383.53,318.19H389a13.66,13.66,0,0,1-.68-2.58,15.71,15.71,0,0,1-.29-2.9V294.19a9.42,9.42,0,0,0-3.4-7.57q-3.39-2.87-10.17-2.87-6.52,0-10.37,3a10.61,10.61,0,0,0-4.17,8.09h5.73a5.84,5.84,0,0,1,1.11-3,6.73,6.73,0,0,1,2.16-1.83,9.45,9.45,0,0,1,2.7-.91,16.24,16.24,0,0,1,2.77-.26q4.31,0,6.27,1.34a4,4,0,0,1,1.95,3.36,3,3,0,0,1-.55,1.76,4.57,4.57,0,0,1-1.83,1.37,13.9,13.9,0,0,1-3.36.94,42,42,0,0,1-5.15.49q-6.53.33-10.11,2.81T358,308.6a9.6,9.6,0,0,0,1.08,4.7,9.46,9.46,0,0,0,2.87,3.22,12.19,12.19,0,0,0,4.17,1.86,20.86,20.86,0,0,0,5,.59,17.6,17.6,0,0,0,6.82-1.21,11.92,11.92,0,0,0,4.73-3.42,12.42,12.42,0,0,0,.29,2.15,8.92,8.92,0,0,0,.56,1.7m-.92-12.92a8.13,8.13,0,0,1-1,3.92,7.71,7.71,0,0,1-2.5,2.64,11.7,11.7,0,0,1-3.57,1.5,17.94,17.94,0,0,1-4.16.49,14.48,14.48,0,0,1-3-.3,7.68,7.68,0,0,1-2.46-.94,5.08,5.08,0,0,1-1.69-1.63,4.25,4.25,0,0,1-.62-2.35,5.77,5.77,0,0,1,.36-2,3.92,3.92,0,0,1,1.36-1.76,8.47,8.47,0,0,1,2.73-1.31,21.45,21.45,0,0,1,4.45-.71,50.29,50.29,0,0,0,5.72-.69,8.78,8.78,0,0,0,4.42-2Z" transform="translate(-131 -258.89)"/><path class="cls-4" d="M383.53,318.19H389a13.66,13.66,0,0,1-.68-2.58,15.71,15.71,0,0,1-.29-2.9V294.19a9.42,9.42,0,0,0-3.4-7.57q-3.39-2.87-10.17-2.87-6.52,0-10.37,3a10.61,10.61,0,0,0-4.17,8.09h5.73a5.84,5.84,0,0,1,1.11-3,6.73,6.73,0,0,1,2.16-1.83,9.45,9.45,0,0,1,2.7-.91,16.24,16.24,0,0,1,2.77-.26q4.31,0,6.27,1.34a4,4,0,0,1,1.95,3.36,3,3,0,0,1-.55,1.76,4.57,4.57,0,0,1-1.83,1.37,13.9,13.9,0,0,1-3.36.94,42,42,0,0,1-5.15.49q-6.53.33-10.11,2.81T358,308.6a9.6,9.6,0,0,0,1.08,4.7,9.46,9.46,0,0,0,2.87,3.22,12.19,12.19,0,0,0,4.17,1.86,20.86,20.86,0,0,0,5,.59,17.6,17.6,0,0,0,6.82-1.21,11.92,11.92,0,0,0,4.73-3.42,12.42,12.42,0,0,0,.29,2.15A8.92,8.92,0,0,0,383.53,318.19Zm-.92-12.92a8.13,8.13,0,0,1-1,3.92,7.71,7.71,0,0,1-2.5,2.64,11.7,11.7,0,0,1-3.57,1.5,17.94,17.94,0,0,1-4.16.49,14.48,14.48,0,0,1-3-.3,7.68,7.68,0,0,1-2.46-.94,5.08,5.08,0,0,1-1.69-1.63,4.25,4.25,0,0,1-.62-2.35,5.77,5.77,0,0,1,.36-2,3.92,3.92,0,0,1,1.36-1.76,8.47,8.47,0,0,1,2.73-1.31,21.45,21.45,0,0,1,4.45-.71,50.29,50.29,0,0,0,5.72-.69,8.78,8.78,0,0,0,4.42-2Z" transform="translate(-131 -258.89)"/><rect class="cls-3" x="261.03" y="10.78" width="2.41" height="48.52"/><rect class="cls-4" x="261.03" y="10.78" width="2.41" height="48.52"/><path class="cls-5" d="M425.77,318.19a14.61,14.61,0,0,1-.69-2.58,16.82,16.82,0,0,1-.29-2.91v-19a8.71,8.71,0,0,0-3.46-7.39q-3.45-2.61-9.78-2.61a16.1,16.1,0,0,0-9.36,2.51,11.6,11.6,0,0,0-4.73,7h2.48a9.38,9.38,0,0,1,4-5.28,14.12,14.12,0,0,1,7.57-1.83,22.12,22.12,0,0,1,3.75.33,11.22,11.22,0,0,1,3.49,1.17,7.34,7.34,0,0,1,2.57,2.32,6.52,6.52,0,0,1,1,3.81,3.57,3.57,0,0,1-.88,2.51,6.68,6.68,0,0,1-2.52,1.57,18.1,18.1,0,0,1-3.91.94c-1.52.22-3.22.42-5.09.59a50.29,50.29,0,0,0-5.25.78,16.35,16.35,0,0,0-4.6,1.63,9,9,0,0,0-3.22,2.94,8.29,8.29,0,0,0-1.21,4.69,7.86,7.86,0,0,0,1.08,4.18,9.43,9.43,0,0,0,2.8,2.93,12.37,12.37,0,0,0,3.91,1.73,17.88,17.88,0,0,0,4.41.55,21.6,21.6,0,0,0,8.74-1.63,13.35,13.35,0,0,0,5.74-4.5v.66a15.32,15.32,0,0,0,.22,2.77,8.25,8.25,0,0,0,.69,2.12ZM422.38,306a8.52,8.52,0,0,1-1.24,4.63,10.19,10.19,0,0,1-3.3,3.23,15.54,15.54,0,0,1-4.63,1.89,22.82,22.82,0,0,1-5.31.62A15.23,15.23,0,0,1,405,316a11,11,0,0,1-3.13-1.1,7.73,7.73,0,0,1-2.51-2.16,5.55,5.55,0,0,1-1-3.45,6,6,0,0,1,2.74-5.29c1.82-1.21,4.89-2,9.19-2.47,1.18-.09,2.34-.2,3.49-.33a30.84,30.84,0,0,0,3.33-.55,19.14,19.14,0,0,0,3-.92,7.66,7.66,0,0,0,2.35-1.46Z" transform="translate(-131 -258.89)"/><path class="cls-4" d="M425.77,318.19a14.61,14.61,0,0,1-.69-2.58,16.82,16.82,0,0,1-.29-2.91v-19a8.71,8.71,0,0,0-3.46-7.39q-3.45-2.61-9.78-2.61a16.1,16.1,0,0,0-9.36,2.51,11.6,11.6,0,0,0-4.73,7h2.48a9.38,9.38,0,0,1,4-5.28,14.12,14.12,0,0,1,7.57-1.83,22.12,22.12,0,0,1,3.75.33,11.22,11.22,0,0,1,3.49,1.17,7.34,7.34,0,0,1,2.57,2.32,6.52,6.52,0,0,1,1,3.81,3.57,3.57,0,0,1-.88,2.51,6.68,6.68,0,0,1-2.52,1.57,18.1,18.1,0,0,1-3.91.94c-1.52.22-3.22.42-5.09.59a50.29,50.29,0,0,0-5.25.78,16.35,16.35,0,0,0-4.6,1.63,9,9,0,0,0-3.22,2.94,8.29,8.29,0,0,0-1.21,4.69,7.86,7.86,0,0,0,1.08,4.18,9.43,9.43,0,0,0,2.8,2.93,12.37,12.37,0,0,0,3.91,1.73,17.88,17.88,0,0,0,4.41.55,21.6,21.6,0,0,0,8.74-1.63,13.35,13.35,0,0,0,5.74-4.5v.66a15.32,15.32,0,0,0,.22,2.77,8.25,8.25,0,0,0,.69,2.12ZM422.38,306a8.52,8.52,0,0,1-1.24,4.63,10.19,10.19,0,0,1-3.3,3.23,15.54,15.54,0,0,1-4.63,1.89,22.82,22.82,0,0,1-5.31.62A15.23,15.23,0,0,1,405,316a11,11,0,0,1-3.13-1.1,7.73,7.73,0,0,1-2.51-2.16,5.55,5.55,0,0,1-1-3.45,6,6,0,0,1,2.74-5.29c1.82-1.21,4.89-2,9.19-2.47,1.18-.09,2.34-.2,3.49-.33a30.84,30.84,0,0,0,3.33-.55,19.14,19.14,0,0,0,3-.92,7.66,7.66,0,0,0,2.35-1.46Z" transform="translate(-131 -258.89)"/><path class="cls-5" d="M462,301.52a17.74,17.74,0,0,0-1.34-6.86A18.2,18.2,0,0,0,457,289a17,17,0,0,0-5.35-3.81,15.56,15.56,0,0,0-6.52-1.4,15.22,15.22,0,0,0-8.48,2.46,16.92,16.92,0,0,0-5.87,6.47V269.67h-2.41v48.52h2.41V310.1a16.86,16.86,0,0,0,5.87,6.42,15.29,15.29,0,0,0,8.48,2.45,15.85,15.85,0,0,0,6.52-1.37,16.93,16.93,0,0,0,5.35-3.74,18.09,18.09,0,0,0,3.62-5.53,17.34,17.34,0,0,0,1.34-6.81m-2.42,0a15.45,15.45,0,0,1-1.11,5.87,14.85,14.85,0,0,1-3.07,4.79,14.48,14.48,0,0,1-4.58,3.23,13.83,13.83,0,0,1-11.18,0,14.33,14.33,0,0,1-4.57-3.23,15.47,15.47,0,0,1-3.11-4.79,15.09,15.09,0,0,1-1.14-5.87,15.61,15.61,0,0,1,1.14-5.93A15.45,15.45,0,0,1,435,290.7a14.73,14.73,0,0,1,4.57-3.26,13.52,13.52,0,0,1,11.18,0,14.71,14.71,0,0,1,7.65,8.12,16,16,0,0,1,1.11,5.93" transform="translate(-131 -258.89)"/><path class="cls-4" d="M462,301.52a17.74,17.74,0,0,0-1.34-6.86A18.2,18.2,0,0,0,457,289a17,17,0,0,0-5.35-3.81,15.56,15.56,0,0,0-6.52-1.4,15.22,15.22,0,0,0-8.48,2.46,16.92,16.92,0,0,0-5.87,6.47V269.67h-2.41v48.52h2.41V310.1a16.86,16.86,0,0,0,5.87,6.42,15.29,15.29,0,0,0,8.48,2.45,15.85,15.85,0,0,0,6.52-1.37,16.93,16.93,0,0,0,5.35-3.74,18.09,18.09,0,0,0,3.62-5.53A17.34,17.34,0,0,0,462,301.52Zm-2.42,0a15.45,15.45,0,0,1-1.11,5.87,14.85,14.85,0,0,1-3.07,4.79,14.48,14.48,0,0,1-4.58,3.23,13.83,13.83,0,0,1-11.18,0,14.33,14.33,0,0,1-4.57-3.23,15.47,15.47,0,0,1-3.11-4.79,15.09,15.09,0,0,1-1.14-5.87,15.61,15.61,0,0,1,1.14-5.93A15.45,15.45,0,0,1,435,290.7a14.73,14.73,0,0,1,4.57-3.26,13.52,13.52,0,0,1,11.18,0,14.71,14.71,0,0,1,7.65,8.12A16,16,0,0,1,459.54,301.49Z" transform="translate(-131 -258.89)"/></svg>